<svg width="311" height="311" viewBox="0 0 311 311" fill="none" xmlns="http://www.w3.org/2000/svg">
<g clip-path="url(#clip0_453_594)">
<path d="M311 0H0V311H311V0Z" fill="white"/>
<path d="M129.927 79.7091C127.653 75.7451 124.036 72.4019 122.911 68.0037C121.617 62.9413 123.915 57.7519 124.669 52.5887C126.122 42.6404 121.507 32.3525 113.814 25.5771C106.12 18.8017 95.6867 15.3402 85.2837 14.7711C74.1244 14.1603 62.3693 16.9748 54.2105 24.3418C46.053 31.7082 42.4143 44.0959 47.2901 53.7935C49.7122 58.6103 54.0102 62.6203 55.141 67.8607C56.5604 74.4402 52.5852 80.9382 48.1877 86.1512C43.7901 91.3648 38.6207 96.4105 36.9693 102.939C34.48 112.779 40.6683 122.52 46.5723 130.898C49.7962 135.473 53.02 140.048 56.2438 144.624C57.6626 146.636 59.1044 148.675 61.0208 150.259C66.6356 154.902 75.2913 154.613 81.9305 151.468C88.5698 148.324 93.6546 142.858 98.5641 137.523C107.865 127.416 118.021 117.641 126.606 106.962C132.358 99.8078 135.084 87.7889 129.927 79.7091Z" fill="#D3FBF0"/>
<path d="M122.078 73.3262L99.5742 66.3157C94.1124 72.1637 84.8403 72.1637 79.3785 66.3157L56.8745 73.3262L59.9851 109.844L56.8745 148.321H89.476H122.078L118.967 109.844L122.078 73.3262Z" fill="#468094"/>
<path d="M40.0952 129.725L48.4026 83.2453C49.2243 78.6494 52.4643 74.8564 56.8749 73.3269L62.634 85.4379C64.5168 89.3975 65.104 93.8498 64.3128 98.1621L58.2663 131.105L40.0952 129.725Z" fill="#5195A8"/>
<path d="M122.078 73.3264C128.065 75.4742 132.617 80.4253 134.254 86.5725L144.072 123.432L131.64 129.429L113.213 85.879L122.078 73.3264Z" fill="#5195A8"/>
<path opacity="0.3" d="M56.875 148.322L74.0814 123.582V118.024L79.9406 109.039C81.0403 111.396 83.9115 113.006 86.4567 113.543C94.9837 115.341 103.457 113.363 109.543 107.126L114.057 111.79V117.449L118.507 148.322H122.079L118.968 109.845L121.014 97.3531L114.058 81.8516L99.8496 79.9128L77.266 87.4123L67.7046 106.274L59.985 109.845L56.875 148.322Z" fill="#422C4F"/>
<path d="M89.4765 49.9412H80.2242L79.3789 66.3159C84.8407 72.164 94.1128 72.164 99.5746 66.3159L98.7293 49.9412H89.4765Z" fill="#BD6C67"/>
<path d="M89.4767 49.9412H80.2244L79.9414 55.4278C80.1299 56.0069 80.3289 56.5816 80.5479 57.1477C81.8758 60.5817 84.4789 63.1804 87.6219 63.8876C92.1214 64.9003 96.4791 62.1336 98.3109 57.3965L98.4073 57.1477C98.6263 56.5816 98.8253 56.0069 99.0132 55.4278L98.7302 49.9412H89.4767Z" fill="#422C4F"/>
<path d="M81.3669 43.8824C81.8114 41.1506 79.9572 38.5757 77.2254 38.1312C74.4936 37.6867 71.9188 39.5409 71.4743 42.2727C71.0298 45.0045 72.884 47.5793 75.6157 48.0238C78.3475 48.4683 80.9224 46.6141 81.3669 43.8824Z" fill="#BD6C67"/>
<path d="M79.2505 43.0747C79.2505 44.6378 77.9835 45.9048 76.4204 45.9048C74.8573 45.9048 73.5903 44.6378 73.5903 43.0747C73.5903 41.5116 74.8573 40.2446 76.4204 40.2446C77.9829 40.2446 79.2505 41.5116 79.2505 43.0747Z" fill="#A64F5A"/>
<path d="M103.338 48.0187C106.07 47.5742 107.924 44.9993 107.48 42.2675C107.035 39.5358 104.46 37.6816 101.729 38.1261C98.9968 38.5706 97.1426 41.1454 97.5871 43.8772C98.0316 46.609 100.606 48.4632 103.338 48.0187Z" fill="#BD6C67"/>
<path d="M99.7051 43.0747C99.7051 44.6378 100.972 45.9048 102.535 45.9048C104.098 45.9048 105.365 44.6378 105.365 43.0747C105.365 41.5116 104.098 40.2446 102.535 40.2446C100.972 40.2446 99.7051 41.5116 99.7051 43.0747Z" fill="#A64F5A"/>
<path d="M79.3874 30.3687V27.9423C79.3874 26.9297 80.3832 26.1821 81.4269 26.4103C83.8844 26.9477 87.8827 27.765 89.4775 27.765C91.0723 27.765 95.0705 26.9477 97.528 26.4103C98.5717 26.1821 99.5676 26.9297 99.5676 27.9423V30.3687C99.5676 34.1872 100.314 37.9733 101.769 41.5355L102.534 43.4102C102.659 42.2987 102.725 41.1791 102.725 40.0558V33.3525C102.725 26.0359 96.7941 20.1045 89.4775 20.1045C82.1609 20.1045 76.2295 26.0359 76.2295 33.3525V40.0564C76.2295 41.1797 76.2954 42.2993 76.4204 43.4108L77.1861 41.5361C78.641 37.9733 79.3874 34.1872 79.3874 30.3687Z" fill="#422C4F"/>
<path d="M101.769 41.5356C100.314 37.9734 99.5675 34.1873 99.5675 30.3688V27.9424C99.5675 26.9298 98.5723 26.1821 97.528 26.4104C95.0705 26.9478 91.0722 27.7651 89.4774 27.7651C87.8826 27.7651 83.8844 26.9478 81.4269 26.4104C80.3832 26.1821 79.3873 26.9298 79.3873 27.9424V30.3688C79.3873 34.1873 78.641 37.9734 77.1861 41.5356L76.4204 43.4103C76.7743 46.5657 77.6221 49.6527 78.9451 52.5543C80.5113 55.9884 83.5815 58.5871 87.2886 59.2943C92.5955 60.3069 97.7357 57.5403 99.8966 52.8031L100.01 52.5543C101.333 49.6527 102.181 46.5657 102.534 43.4103L101.769 41.5356Z" fill="#BD6C67"/>
<path d="M83.3742 33.3985C82.0444 33.4844 80.9073 34.1972 80.2231 35.2272L86.7342 34.8074C85.9232 33.8731 84.704 33.3127 83.3742 33.3985Z" fill="#422C4F"/>
<path d="M83.4868 38.8788C84.0436 38.8788 84.495 38.4274 84.495 37.8706C84.495 37.3137 84.0436 36.8623 83.4868 36.8623C82.9299 36.8623 82.4785 37.3137 82.4785 37.8706C82.4785 38.4274 82.9299 38.8788 83.4868 38.8788Z" fill="#422C4F"/>
<path d="M95.5799 33.3985C96.9097 33.4844 98.0468 34.1972 98.731 35.2272L92.2192 34.8074C93.0309 33.8731 94.2501 33.3127 95.5799 33.3985Z" fill="#422C4F"/>
<path d="M94.46 37.8706C94.46 38.4273 94.9109 38.8788 95.4676 38.8788C96.0243 38.8788 96.4759 38.4273 96.4759 37.8706C96.4759 37.3139 96.0243 36.8623 95.4676 36.8623C94.9115 36.8629 94.46 37.3139 94.46 37.8706Z" fill="#422C4F"/>
<path d="M88.1601 37.47C88.2012 40.2827 88.2422 43.096 88.2833 45.9086L92.4743 45.8807C91.9612 47.0363 90.7955 47.802 89.5322 47.8493C88.269 47.8966 87.0069 47.1738 86.4092 46.0598C86.5274 43.2645 87.1232 40.0674 88.1601 37.47Z" fill="#A64F5A"/>
<path d="M95.7225 48.8481C91.8201 49.5131 87.8206 49.6057 83.8921 49.1218C84.2802 50.387 84.743 51.5165 85.4956 52.605C86.2482 53.6935 87.3336 54.6023 88.6224 54.9027C90.2626 55.2852 92.0297 54.616 93.2476 53.4528C94.4661 52.2903 95.294 50.4772 95.7225 48.8481Z" fill="white"/>
<path d="M110.744 90.7755C111.976 94.2873 107.156 99.1749 99.9795 101.691C92.8028 104.208 85.9863 103.4 84.7548 99.8884C83.5232 96.3766 87.4704 89.0009 94.6471 86.4843C101.824 83.9677 109.513 87.263 110.744 90.7755Z" fill="#EBA25D"/>
<path d="M110.813 88.3458C110.603 89.1183 109.695 89.4069 109.254 90.0594C108.408 91.309 109.539 93.3442 108.61 94.5272C108.025 95.2724 106.929 95.26 105.996 95.1206C105.062 94.9813 104.023 94.8003 103.264 95.3526C102.641 95.8067 102.397 96.6271 102.108 97.3623C101.818 98.0975 101.35 98.8725 100.591 98.9957C99.5387 99.1661 98.6306 97.9999 97.5608 97.9712C96.5251 97.9439 95.8048 98.9559 95.3054 99.882C94.8059 100.808 94.2094 101.863 93.1906 102.02C92.1543 102.18 91.2213 101.324 90.4886 100.515C89.7565 99.706 88.8982 98.8054 87.847 98.8365C86.825 98.8669 86.0077 99.7931 84.9858 99.8323C84.0379 99.8684 83.1546 99.0647 82.8797 98.1112C82.6048 97.1577 82.8542 96.1189 83.3568 95.2979C83.8593 94.4762 84.5921 93.8405 85.3453 93.2621C88.5418 90.8083 92.2806 89.1818 96.1289 88.0497C99.3328 87.1074 102.629 86.4829 105.927 85.9418C107.196 85.734 111.472 85.9268 110.813 88.3458Z" fill="#ADBF53"/>
<path d="M108.71 84.9727C109.941 88.4851 105.121 93.3722 97.9448 95.8888C90.7682 98.4054 83.9517 97.5981 82.7201 94.0862C81.4886 90.5744 85.4358 83.1988 92.6124 80.6821C99.7897 78.1649 107.478 81.4603 108.71 84.9727Z" fill="#984058"/>
<path d="M81.2531 92.5668C81.9 93.0389 82.7888 92.6981 83.5408 92.9313C84.982 93.3785 85.3695 95.675 86.8337 96.0189C87.7555 96.2354 88.6039 95.5418 89.2465 94.8496C89.889 94.1579 90.5875 93.3673 91.5242 93.325C92.2949 93.2902 92.9977 93.7785 93.6832 94.1722C94.368 94.5653 95.2176 94.8788 95.8882 94.5006C96.8162 93.9769 96.7969 92.4984 97.6148 91.8086C98.4066 91.1406 99.6009 91.4808 100.569 91.8926C101.538 92.3043 102.662 92.7553 103.556 92.2415C104.466 91.719 104.66 90.4682 104.727 89.3791C104.794 88.2899 104.901 87.0503 105.741 86.4184C106.559 85.8038 107.775 86.0172 108.597 85.4095C109.361 84.8459 109.549 83.6666 109.168 82.7498C108.787 81.8336 107.944 81.178 107.038 80.8502C106.133 80.5224 105.163 80.4832 104.214 80.5019C100.186 80.5815 96.2495 81.6457 92.5368 83.1659C89.4461 84.4311 86.4817 86.0016 83.5682 87.6381C82.4467 88.2682 79.2279 91.0889 81.2531 92.5668Z" fill="#ADBF53"/>
<path d="M106.771 79.4432C108.002 82.955 103.182 87.8427 96.0059 90.3587C88.8292 92.8753 82.0127 92.0679 80.7812 88.5561C79.5496 85.0443 83.4968 77.6686 90.6734 75.152C97.8507 72.6354 105.539 75.9307 106.771 79.4432Z" fill="#EBA25D"/>
<path d="M91.965 76.7307C92.0453 76.9596 91.7933 77.257 91.4021 77.3938C91.0109 77.5306 90.6283 77.4566 90.5481 77.2277C90.4679 76.9988 90.7198 76.7015 91.111 76.5647C91.5022 76.4272 91.8842 76.5012 91.965 76.7307Z" fill="#F5D896"/>
<path d="M94.3024 78.8604C94.3827 79.0893 94.1307 79.3866 93.7395 79.5234C93.3483 79.6609 92.9657 79.5863 92.8855 79.3574C92.8053 79.1285 93.0572 78.8312 93.4484 78.6943C93.8403 78.5569 94.2222 78.6309 94.3024 78.8604Z" fill="#F5D896"/>
<path d="M89.5602 79.8947C89.6405 80.1236 89.3886 80.4209 88.9973 80.5577C88.6061 80.6946 88.2236 80.6205 88.1433 80.3916C88.0631 80.1627 88.315 79.8654 88.7062 79.7286C89.0975 79.5911 89.48 79.6658 89.5602 79.8947Z" fill="#F5D896"/>
<path d="M96.5617 76.5086C96.6419 76.7375 96.39 77.0348 95.9988 77.1716C95.6075 77.3085 95.225 77.2345 95.1448 77.0056C95.0645 76.7767 95.3165 76.4793 95.7077 76.3425C96.0989 76.205 96.4808 76.2791 96.5617 76.5086Z" fill="#F5D896"/>
<path d="M69.7773 97.4033L65.5303 102.412L72.7753 107.807L75.7752 102.412C77.8645 101.545 79.4002 99.7141 79.8916 97.506L81.2974 91.1821L72.0812 85.7676L69.7773 97.4033Z" fill="#BD6C67"/>
<path d="M58.5452 108.29C55.9789 108.848 53.693 110.296 52.0926 112.379L42.0187 125.487C38.6761 129.836 39.3472 136.045 43.5413 139.58C48.1927 143.5 55.2138 142.534 58.6342 137.505L67.9399 123.82C69.1939 121.976 69.8638 119.799 69.8638 117.569V116.584L75.0475 109.499L63.673 101.029L58.5452 108.29Z" fill="#6CA8BC"/>
<path d="M65.5303 102.412L74.0815 105.458L72.7753 107.807L65.5303 102.412Z" fill="#422C4F"/>
<path d="M79.1317 81.9164C76.9149 82.9197 75.1484 84.7677 74.1719 86.9963L74.8803 87.4124C75.5683 85.9812 76.806 84.7135 78.2429 84.0368C80.2855 83.0746 82.47 82.2803 84.6445 81.6726C84.6439 81.4163 84.5549 81.175 84.4143 80.9623C82.6068 80.8627 80.7781 81.1706 79.1317 81.9164Z" fill="#A64F5A"/>
<path d="M79.1316 81.9163C80.7787 81.1711 82.6074 80.8626 84.4143 80.9621C84.2333 80.6891 83.9652 80.4639 83.6654 80.3277C83.1324 80.0845 82.5253 80.0671 81.94 80.0963C78.0599 80.2891 74.1364 82.4711 72.0825 85.7689L74.1718 86.9962C75.1484 84.7675 76.9148 82.9189 79.1316 81.9163Z" fill="#BD6C67"/>
<path d="M80.6946 83.5607C82.4928 82.6096 84.625 82.3241 86.6154 82.7421C86.713 82.4709 86.7323 82.1823 86.6229 81.9117C86.4773 81.5541 86.1414 81.2991 85.7763 81.1716C85.4118 81.0434 85.0181 81.0273 84.6318 81.031C80.5117 81.0702 76.2659 83.4481 74.1704 86.9953L76.5209 88.3762C77.2512 86.3373 78.7794 84.5733 80.6946 83.5607Z" fill="#BD6C67"/>
<path d="M80.6947 83.5607C78.7796 84.5733 77.252 86.3367 76.5205 88.3762L77.1015 88.7177C78.6876 86.555 81.4057 84.8563 84.0156 84.2406C84.6662 84.0869 85.3504 83.9831 85.9115 83.6192C86.2281 83.4139 86.4887 83.093 86.6149 82.7422C84.6252 82.3248 82.493 82.6097 80.6947 83.5607Z" fill="#A64F5A"/>
<path d="M82.4404 85.3299C84.0433 84.6276 85.9081 84.5611 87.5651 85.1196C87.6634 84.7663 87.5825 84.3496 87.3611 84.0461C87.0395 83.6051 86.5077 83.3675 85.9796 83.2312C84.187 82.7697 82.2513 83.291 80.6758 84.2625C79.1009 85.2341 77.7251 86.9701 76.5215 88.3758L78.6375 89.6186C79.2651 87.7594 80.6416 86.1179 82.4404 85.3299Z" fill="#BD6C67"/>
<path d="M82.4409 85.33C80.642 86.1181 79.2656 87.7589 78.6367 89.6193L79.3788 90.0553C80.5693 87.6861 83.2768 85.9794 85.9266 85.8854C86.4161 85.868 86.9634 85.8786 87.3198 85.5427C87.443 85.4264 87.5207 85.279 87.5649 85.1198C85.9085 84.5612 84.0438 84.6284 82.4409 85.33Z" fill="#A64F5A"/>
<path d="M81.2976 91.1829C81.8425 89.5477 83.3857 88.1563 85.0713 87.7968C85.4818 87.7091 85.9079 87.6718 86.2942 87.5075C86.6804 87.3433 87.0331 87.0118 87.0692 86.5938C87.1059 86.174 86.8061 85.779 86.4298 85.5893C86.0534 85.3996 85.6156 85.3778 85.1945 85.3952C82.5609 85.5028 79.8801 87.2954 78.6367 89.6199L81.2976 91.1829Z" fill="#BD6C67"/>
<path d="M117.849 78.2363L110.937 85.5989L111.965 89.1313C112.462 90.843 113.67 92.2593 115.282 93.0219L117.01 99.477L124.604 95.4483L117.849 78.2363Z" fill="#BD6C67"/>
<path d="M125.457 94.9956L113.213 101.491L117.24 108.923C116.79 111.623 117.179 114.396 118.354 116.868L125.948 132.839C128.637 138.495 135.737 140.422 140.917 136.901C145.31 133.915 146.681 128.059 144.071 123.433L135.469 108.184C134.174 105.887 132.228 104.025 129.877 102.83L128.966 102.367L125.457 94.9956Z" fill="#6CA8BC"/>
<path d="M124.604 95.4485L116.359 97.047L117.01 99.4772L124.604 95.4485Z" fill="#422C4F"/>
<path d="M111.003 76.491C109.066 76.1054 107.08 76.8275 105.104 76.8288C104.987 77.0029 104.88 77.1852 104.794 77.3786L115.725 80.4979L116.059 80.1434C115.051 78.1194 112.941 76.8773 111.003 76.491Z" fill="#A64F5A"/>
<path d="M109.846 74.7563C108.842 74.757 107.824 74.9069 106.913 75.328C106.193 75.6607 105.547 76.1758 105.105 76.8289C107.08 76.8276 109.066 76.1055 111.003 76.4911C112.942 76.8774 115.051 78.1195 116.06 80.1429L117.85 78.2364C115.888 75.9867 112.831 74.7545 109.846 74.7563Z" fill="#BD6C67"/>
<path d="M106.236 78.323C105.538 78.3821 104.836 78.514 104.204 78.8175C103.572 79.1204 103.099 79.6255 102.804 80.2605C102.96 80.3849 103.139 80.4764 103.341 80.5081L113.764 82.5874L114.556 81.7446C112.637 79.1907 109.27 78.0667 106.236 78.323Z" fill="#A64F5A"/>
<path d="M105.428 76.7934C104.734 76.8581 104.029 76.9794 103.421 77.3215C102.814 77.663 102.316 78.2613 102.25 78.9549C102.204 79.4456 102.428 79.96 102.804 80.2598C103.1 79.6248 103.573 79.1197 104.204 78.8168C104.836 78.5139 105.538 78.3814 106.237 78.3223C109.27 78.066 112.636 79.19 114.556 81.7439L116.059 80.1429C113.19 77.6673 109.202 76.4426 105.428 76.7934Z" fill="#BD6C67"/>
<path d="M108.268 81.3655C106.6 81.2013 105.139 81.5671 103.742 82.3365C103.758 82.3415 103.774 82.3502 103.791 82.3545C104.296 82.492 104.829 82.4671 105.353 82.4615C107.785 82.4341 110.07 83.2602 112.359 84.0831L112.636 83.7882C111.591 82.4341 110.014 81.5372 108.268 81.3655Z" fill="#A64F5A"/>
<path d="M105.279 79.2042C104.614 79.2303 103.923 79.3155 103.365 79.6788C102.807 80.042 102.427 80.7536 102.636 81.3855C102.795 81.8663 103.255 82.1916 103.742 82.3366C105.139 81.5671 106.6 81.2014 108.268 81.3656C110.015 81.5373 111.591 82.4348 112.636 83.7889L114.556 81.7444C112.081 79.7665 108.445 79.0804 105.279 79.2042Z" fill="#BD6C67"/>
<path d="M110.937 85.5991C109.311 84.6008 107.293 84.291 105.416 84.6338C105.042 84.7022 104.67 84.798 104.29 84.793C103.911 84.788 103.511 84.6649 103.272 84.37C102.892 83.9035 103.061 83.1609 103.495 82.7441C103.928 82.3274 104.545 82.1688 105.141 82.0805C107.58 81.7203 110.615 82.3784 112.637 83.7885L110.937 85.5991Z" fill="#BD6C67"/>
<path d="M99.8478 138.67L94.4346 148.321H104.937L110.351 138.67H99.8478Z" fill="#E4737B"/>
<path d="M69.1382 138.67H58.6357L64.049 148.321H74.5515H94.435L99.8482 138.67H69.1382Z" fill="white"/>
<path d="M64.0493 148.321L99.8485 138.67L94.4353 148.321H64.0493Z" fill="#D1F4F5"/>
<path d="M110.351 138.67H102.393L104.937 148.321L110.351 138.67Z" fill="#B06479"/>
<path d="M124.238 121.364H103.875L103.271 123.582H124.842L124.238 121.364Z" fill="#422C4F"/>
<path d="M121.819 119.147H106.295L105.835 121.364H122.279L121.819 119.147Z" fill="#454F6B"/>
<path d="M114.748 119.147H113.366V112.248L106.937 105.819L107.914 104.842L114.748 111.675V119.147Z" fill="white"/>
<path d="M109.404 129.176C111.376 129.557 113.187 130.56 115.16 130.935C117.245 131.33 119.415 131 121.426 130.322C121.954 130.144 122.473 129.94 122.985 129.722L123.518 123.583H104.596L105.096 129.358C106.495 128.973 107.98 128.899 109.404 129.176Z" fill="#93E3EF"/>
<path d="M115.16 140.243C113.187 139.868 111.376 138.866 109.404 138.484C108.246 138.259 107.047 138.265 105.888 138.481L106.741 148.321H121.372L122.15 139.354C121.909 139.446 121.671 139.547 121.426 139.63C119.415 140.308 117.244 140.638 115.16 140.243Z" fill="#93E3EF"/>
<path d="M121.425 130.322C119.414 131 117.244 131.33 115.159 130.935C113.186 130.56 111.375 129.558 109.404 129.176C107.979 128.899 106.495 128.973 105.096 129.358L105.887 138.481C107.046 138.266 108.246 138.26 109.404 138.484C111.375 138.866 113.186 139.869 115.159 140.244C117.244 140.639 119.414 140.309 121.425 139.631C121.67 139.548 121.908 139.447 122.149 139.355L122.984 129.722C122.473 129.94 121.954 130.143 121.425 130.322Z" fill="#E4737B"/>
<path d="M147.125 148.321H32.417V153.563H147.125V148.321Z" fill="#A64F5A"/>
<path d="M147.125 153.563H32.417V156.674H147.125V153.563Z" fill="#8C404C"/>
<path d="M234.749 141.387C242.219 144.193 250.628 144.071 258.023 141.049C265.417 138.027 271.736 132.128 275.511 124.725C278.614 118.638 279.967 111.154 277.505 104.745C274.254 96.2825 265.082 91.1299 263.267 82.1942C262.117 76.5241 264.284 70.6953 266.976 65.6496C269.667 60.6034 272.966 55.8009 274.398 50.2035C275.83 44.6061 274.856 37.7691 270.375 34.457C266.622 31.6816 261.622 32.1108 257.078 32.6538C250.042 33.4941 246.525 37.0538 239.505 36.0717C232.401 35.0777 228.621 26.9457 223.448 21.6755C214.925 12.9911 200.249 12.3076 191.044 20.1659C181.839 28.0242 179.302 43.402 185.441 54.1209C188.08 58.7274 192.099 62.5596 193.526 67.7352C195.503 74.9069 191.901 82.5108 187.339 88.1978C182.777 93.8847 177.103 98.6735 173.659 105.189C170.141 111.846 169.29 120.036 171.359 127.348C173.427 134.659 178.385 140.994 184.774 144.485C198.837 152.17 219.762 146.747 234.749 141.387Z" fill="#D3FBF0"/>
<path d="M285.659 148.322H170.951V153.563H285.659V148.322Z" fill="#A64F5A"/>
<path d="M285.659 153.563H170.951V156.674H285.659V153.563Z" fill="#8C404C"/>
<path d="M204.095 73.2342C204.027 68.4579 207.096 64.426 207.444 59.8537C207.851 54.4946 205.244 49.796 206.899 44.272C208.528 38.8351 213.063 34.6105 218.229 32.2593C223.146 30.0207 231.949 27.5215 237.18 29.4031C242.243 31.2243 246.274 36.5661 246.652 41.8978C246.951 46.1169 245.259 50.3203 245.761 54.5201C246.432 60.1336 250.907 64.8403 251.16 70.4881C251.455 77.0788 245.641 82.6811 239.281 84.4383C232.856 86.2135 224.406 85.6263 217.694 85.4173C211.313 85.2176 204.193 80.0812 204.095 73.2342Z" fill="#422C4F"/>
<path d="M213.027 83.7522C207.439 85.3793 202.976 89.5959 201.035 95.0819L191.503 122.008C189.445 127.821 189.169 134.117 190.712 140.088L192.838 148.322H208.966L202.636 130.12L215.545 86.6899L213.027 83.7522Z" fill="#EBA58E"/>
<path d="M213.026 83.7522L212.242 83.9811C207.099 85.4789 202.885 89.1792 200.735 94.0842L195.142 106.841L208.46 110.523L215.544 86.6899L213.026 83.7522Z" fill="#F0BF6C"/>
<path d="M196.718 107.276L208.461 110.523L206.822 116.037L196.111 108.987L196.718 107.276Z" fill="#422C4F"/>
<path d="M200.902 112.141C199.715 115.888 200.075 120.323 202.028 123.733L202.635 130.12L206.821 116.037L200.902 112.141Z" fill="#E78882"/>
<path d="M213.643 93.0867L212.423 93.4238C208.93 94.3891 206.164 97.0581 205.075 100.515L204.776 101.463C204.406 102.639 203.928 103.778 203.349 104.867L201.381 108.566L208.46 110.523L213.643 93.0867Z" fill="#EBA25D"/>
<path d="M225.256 93.2526C230.445 94.254 235.935 92.8695 240.394 90.035C243.606 87.993 246.305 85.2388 248.523 82.1331C241.591 81.1933 235.405 80.3828 235.405 80.3828L234.887 70.5334L223.828 72.2614L224.26 80.7286L213.028 83.7528C214.917 88.6871 220.067 92.2512 225.256 93.2526Z" fill="#EBA58E"/>
<path d="M250.266 82.3695C249.681 82.2899 249.1 82.2109 248.522 82.1326C246.304 85.2382 243.606 87.993 240.394 90.0345C235.934 92.8695 230.445 94.2541 225.256 93.2521C220.067 92.2506 214.916 88.6866 213.027 83.7516C211.148 92.7458 208.008 101.903 203.793 110.245C201.855 114.08 202.375 118.709 205.175 121.968C205.81 122.707 206.458 123.431 207.134 124.117C210.868 133.345 212.596 139.969 208.967 148.321H254.586C247.329 136.974 252.512 127.988 255.45 120.385C258.387 112.782 257.869 83.4064 250.266 82.3695Z" fill="#F0BF6C"/>
<path d="M239.471 85.9268C235.538 88.9634 230.618 90.8518 225.652 90.667C220.687 90.4823 215.824 87.8599 213.027 83.7522C214.916 88.6872 220.067 92.2513 225.256 93.2527C230.445 94.2541 235.934 92.8695 240.394 90.0351C243.606 87.993 246.304 85.2388 248.522 82.1332C246.945 81.9192 245.412 81.7127 243.976 81.5205C242.633 83.1433 241.141 84.638 239.471 85.9268Z" fill="#E78882"/>
<path d="M246.232 81.823C246.981 81.9238 247.746 82.027 248.522 82.1328C247.746 82.0276 246.982 81.9244 246.232 81.823Z" fill="#EBA58E"/>
<path d="M244.017 81.5256C244.716 81.6196 245.438 81.7166 246.179 81.8161C245.437 81.716 244.716 81.6196 244.017 81.5256Z" fill="#EBA58E"/>
<path d="M243.975 81.52C243.989 81.5219 244.003 81.5238 244.017 81.5256C244.003 81.5238 243.988 81.5219 243.975 81.52Z" fill="#E78882"/>
<path opacity="0.15" d="M236.844 93.0868L228.304 97.9794L220.717 112.837V116.203C220.589 116.324 220.461 116.444 220.335 116.571C217.68 119.226 216.362 122.213 217.391 123.241L220.649 126.499C221.678 127.529 224.664 126.211 227.319 123.555C229.974 120.901 231.292 117.914 230.263 116.885L227.004 113.626C226.902 113.524 226.774 113.45 226.634 113.393L227.368 110.026L233.158 101.804L238.964 106.448C240.656 107.802 243.087 107.707 244.668 106.224L245.599 105.351L251.252 132.625C252.048 128.14 254.015 124.097 255.449 120.385C255.842 119.367 256.173 117.956 256.434 116.277L246.521 93.0862L236.844 93.0868Z" fill="#422C4F"/>
<path d="M232.428 77.3376C233.53 76.567 234.371 75.5239 235.088 74.3788L234.886 70.533L223.827 72.2609L224.147 78.5244C225.192 78.7315 226.25 78.8653 227.315 78.8491C229.119 78.8224 230.949 78.3714 232.428 77.3376Z" fill="#422C4F"/>
<path d="M250.265 82.3696C255.835 83.1055 260.45 87.0502 262.043 92.4379L271.609 124.783L260.937 128.335L251.017 101.308C248.787 95.2301 248.523 88.6052 250.265 82.3696Z" fill="#E78882"/>
<path d="M250.265 82.3696L251.111 82.4816C256.241 83.1589 260.598 86.5681 262.489 91.3843L268.755 107.34L255.075 112.362L251.018 101.308C248.787 95.2301 248.523 88.6052 250.265 82.3696Z" fill="#F0BF6C"/>
<path d="M266.676 108.102L267.105 109.551L256.987 117.57L255.075 112.362L266.676 108.102Z" fill="#422C4F"/>
<path d="M220.979 113.49L240.8 73.8508L242.248 74.7689L221.613 113.926L220.979 113.49Z" fill="#A64F5A"/>
<path d="M225.508 107.191C224.479 106.161 221.492 107.479 218.838 110.135C216.183 112.789 214.865 115.776 215.894 116.805L219.152 120.064L228.767 110.449L225.508 107.191Z" fill="#638674"/>
<path d="M225.823 117.12C223.168 119.774 220.181 121.092 219.152 120.064C218.123 119.034 219.441 116.048 222.096 113.393C224.751 110.739 227.738 109.421 228.767 110.449C229.795 111.478 228.477 114.465 225.823 117.12Z" fill="white"/>
<path d="M224.939 116.236C223.543 117.633 221.971 118.326 221.43 117.785C220.888 117.244 221.581 115.673 222.978 114.276C224.375 112.88 225.946 112.186 226.488 112.727C227.029 113.269 226.335 114.84 224.939 116.236Z" fill="#EBA7AC"/>
<path d="M220.716 112.837L246.204 76.5808L247.5 77.7041L221.278 113.362L220.716 112.837Z" fill="#A64F5A"/>
<path d="M229.167 96.1185L236.202 89.0028C236.831 88.4095 237.68 88.1072 238.543 88.1681L244.7 88.606C247.105 88.7771 249.289 90.0721 250.594 92.1004L271.609 124.783C273.907 128.357 272.849 133.119 269.254 135.384C265.104 137.998 259.6 136.082 257.971 131.456L246.752 99.5924L245.444 100.718C245.959 101.637 245.523 102.798 244.531 103.151L243.077 103.67C241.949 104.071 240.694 103.866 239.754 103.124L233.964 98.5561L231.191 99.3834C230.392 99.6789 229.493 99.4238 228.968 98.7521C228.344 97.954 228.431 96.8133 229.167 96.1185Z" fill="#EBA58E"/>
<path d="M233.964 98.5555L236.188 93.0869L231.191 99.3828L233.964 98.5555Z" fill="#E78882"/>
<path d="M235.751 99.8623L239.857 94.408L236.992 97.0403C236.201 97.7661 235.751 98.7899 235.751 99.8623Z" fill="#E78882"/>
<path d="M242.598 96.1184L238.449 102L238.523 101.336C238.619 100.458 239.016 99.6414 239.645 99.0225L242.598 96.1184Z" fill="#E78882"/>
<path d="M245.444 100.718L242.249 102.319L242.895 101.146C243.195 100.603 243.805 100.309 244.416 100.414C244.714 100.465 245.019 100.422 245.291 100.292L246.752 99.5923L245.444 100.718Z" fill="#E78882"/>
<path d="M225.858 49.6952C223.604 48.5041 221.753 46.5 219.288 45.8487C216.658 45.154 213.691 46.3812 212.173 48.6079C212.131 49.0583 212.104 49.5129 212.104 49.9745V57.2873C212.104 62.7989 214.22 68.1002 218.016 72.0965C219.831 74.0067 222.35 75.0883 224.985 75.0883H228.119C231.259 75.0883 234.24 73.7069 236.269 71.3109C239.119 67.9465 240.853 63.8003 241.266 59.4426C239.062 56.4091 237.561 52.7791 236.719 49.1702C233.543 51.2626 229.22 51.4716 225.858 49.6952Z" fill="#EBA58E"/>
<path d="M228.346 49.9652C226.653 49.8364 225.09 50.5331 224.042 51.7118L232.336 52.3425C231.479 51.0188 230.04 50.0939 228.346 49.9652Z" fill="#422C4F"/>
<path d="M215.832 50.0217C216.857 49.9439 217.762 50.6866 218.333 51.8951L213.312 52.2758C213.895 50.9796 214.807 50.0994 215.832 50.0217Z" fill="#422C4F"/>
<path d="M219.401 57.6332C219.151 56.7923 218.04 55.9252 216.774 55.9905C215.507 56.0254 214.468 56.9764 214.285 57.8348C214.996 57.3309 215.896 56.9441 216.81 56.9086C217.724 56.8719 218.653 57.1866 219.401 57.6332Z" fill="#422C4F"/>
<path d="M230.865 57.1456C230.678 56.6486 230.271 56.1323 229.692 55.7666C229.117 55.3984 228.373 55.1832 227.622 55.2217C226.87 55.259 226.151 55.547 225.616 55.9712C225.076 56.393 224.723 56.9472 224.587 57.4603C225.463 56.8613 226.559 56.3936 227.678 56.3388C228.795 56.2816 229.934 56.6374 230.865 57.1456Z" fill="#422C4F"/>
<path d="M223.943 64.0068C222.632 64.0398 221.324 64.2121 220.049 64.5187C220.368 65.2838 221.312 65.7646 222.139 65.7074C222.965 65.6508 223.732 64.808 223.943 64.0068Z" fill="#E78882"/>
<path d="M231.278 64.5112C230.135 65.6551 228.517 66.9202 226.663 67.7531C224.818 68.6046 222.802 68.9959 221.188 69.1072C222.752 69.514 225.011 69.3697 226.982 68.4535C228.968 67.5671 230.559 65.958 231.278 64.5112Z" fill="#A64F5A"/>
<path d="M189.615 131.618C188.092 131.618 186.857 134.944 186.857 139.048C186.857 143.152 188.092 146.478 189.615 146.478H193.744V131.618H189.615Z" fill="#638674"/>
<path d="M193.743 146.478C195.266 146.478 196.501 143.152 196.501 139.048C196.501 134.944 195.266 131.618 193.743 131.618C192.22 131.618 190.985 134.944 190.985 139.048C190.985 143.152 192.22 146.478 193.743 146.478Z" fill="white"/>
<path d="M195.11 139.048C195.11 141.081 194.499 142.729 193.743 142.729C192.989 142.729 192.377 141.081 192.377 139.048C192.377 137.015 192.988 135.367 193.743 135.367C194.498 135.367 195.11 137.015 195.11 139.048Z" fill="#EBA7AC"/>
<path d="M196.083 131.618C194.559 131.618 193.325 134.944 193.325 139.048C193.325 143.152 194.559 146.478 196.083 146.478H200.211V131.618H196.083Z" fill="#638674"/>
<path d="M200.211 146.478C201.734 146.478 202.969 143.152 202.969 139.048C202.969 134.944 201.734 131.618 200.211 131.618C198.688 131.618 197.453 134.944 197.453 139.048C197.453 143.152 198.688 146.478 200.211 146.478Z" fill="white"/>
<path d="M201.577 139.048C201.577 141.081 200.966 142.729 200.211 142.729C199.456 142.729 198.845 141.081 198.845 139.048C198.845 137.015 199.456 135.367 200.211 135.367C200.965 135.367 201.577 137.015 201.577 139.048Z" fill="#EBA7AC"/>
<path d="M201.842 131.618C200.319 131.618 199.084 134.944 199.084 139.048C199.084 143.152 200.319 146.478 201.842 146.478H205.971V131.618H201.842Z" fill="#638674"/>
<path d="M205.97 146.478C207.494 146.478 208.728 143.152 208.728 139.048C208.728 134.944 207.494 131.618 205.97 131.618C204.447 131.618 203.212 134.944 203.212 139.048C203.212 143.152 204.447 146.478 205.97 146.478Z" fill="white"/>
<path d="M207.337 139.048C207.337 141.081 206.726 142.729 205.971 142.729C205.215 142.729 204.604 141.081 204.604 139.048C204.604 137.015 205.215 135.367 205.971 135.367C206.726 135.367 207.337 137.015 207.337 139.048Z" fill="#EBA7AC"/>
<path d="M211.106 131.618C209.583 131.618 208.348 134.944 208.348 139.048C208.348 143.152 209.583 146.478 211.106 146.478H215.234V131.618H211.106Z" fill="#638674"/>
<path d="M215.234 146.478C216.757 146.478 217.992 143.152 217.992 139.048C217.992 134.944 216.757 131.618 215.234 131.618C213.711 131.618 212.476 134.944 212.476 139.048C212.476 143.152 213.711 146.478 215.234 146.478Z" fill="white"/>
<path d="M216.6 139.048C216.6 141.081 215.989 142.729 215.234 142.729C214.479 142.729 213.867 141.081 213.867 139.048C213.867 137.015 214.479 135.367 215.234 135.367C215.989 135.367 216.6 137.015 216.6 139.048Z" fill="#EBA7AC"/>
<path d="M218.79 131.618C217.266 131.618 216.032 134.944 216.032 139.048C216.032 143.152 217.266 146.478 218.79 146.478H222.918V131.618H218.79Z" fill="#638674"/>
<path d="M222.918 146.478C224.441 146.478 225.676 143.152 225.676 139.048C225.676 134.944 224.441 131.618 222.918 131.618C221.394 131.618 220.16 134.944 220.16 139.048C220.16 143.152 221.394 146.478 222.918 146.478Z" fill="white"/>
<path d="M224.284 139.048C224.284 141.081 223.672 142.729 222.917 142.729C222.162 142.729 221.551 141.081 221.551 139.048C221.551 137.015 222.162 135.367 222.917 135.367C223.672 135.367 224.284 137.015 224.284 139.048Z" fill="#EBA7AC"/>
<path d="M229.244 131.618C227.721 131.618 226.486 134.944 226.486 139.048C226.486 143.152 227.721 146.478 229.244 146.478H233.372V131.618H229.244Z" fill="#638674"/>
<path d="M233.372 146.478C234.895 146.478 236.13 143.152 236.13 139.048C236.13 134.944 234.895 131.618 233.372 131.618C231.849 131.618 230.614 134.944 230.614 139.048C230.614 143.152 231.849 146.478 233.372 146.478Z" fill="white"/>
<path d="M234.739 139.048C234.739 141.081 234.127 142.729 233.372 142.729C232.617 142.729 232.006 141.081 232.006 139.048C232.006 137.015 232.617 135.367 233.372 135.367C234.127 135.367 234.739 137.015 234.739 139.048Z" fill="#EBA7AC"/>
<path d="M248.45 144.635H200.902L204.79 148.321H244.562L248.45 144.635Z" fill="#A59B95"/>
<path d="M227.369 144.635H179.821L183.709 148.321H223.481L227.369 144.635Z" fill="#D4CFBE"/>
<path d="M60.8047 292.779C53.9428 287.063 46.9739 281.126 42.5789 273.352C38.1838 265.578 36.8185 255.47 41.4344 247.825C44.5562 242.653 50.1928 238.793 51.341 232.862C52.8139 225.255 46.2686 218.6 44.2614 211.117C42.4022 204.188 44.8523 196.289 50.3066 191.627C55.7609 186.966 63.9446 185.777 70.5005 188.693C79.5717 192.728 85.0223 203.511 94.7722 205.384C99.6387 206.319 104.63 204.773 109.584 204.891C117.086 205.069 124.362 209.369 128.136 215.856C131.911 222.342 132.053 230.792 128.499 237.402C125.724 242.566 120.828 246.82 120.009 252.624C119.384 257.049 121.309 261.407 123.376 265.37C125.443 269.333 127.754 273.378 127.986 277.84C128.217 282.304 125.548 287.3 121.126 287.942C101.911 290.728 80.2074 293.436 60.8047 292.779Z" fill="#D3FBF0"/>
<path d="M146.83 287.958H32.1221V293.2H146.83V287.958Z" fill="#A64F5A"/>
<path d="M146.83 293.199H32.1221V296.31H146.83V293.199Z" fill="#8C404C"/>
<path d="M68.8802 216.944C69.5955 214.792 70.7151 212.684 70.6318 210.418C70.5776 208.952 70.0197 207.559 69.4985 206.188C68.9772 204.817 68.4778 203.389 68.5505 201.924C68.6233 200.459 69.5153 198.656 70.8837 198.127L94.794 188.841C95.8663 188.841 97.1526 188.992 98.0663 189.554C99.2481 190.282 100.073 191.449 100.58 192.754C100.635 192.452 100.691 192.15 100.743 191.849C101.403 188.06 101.799 184.076 100.546 180.439C99.1847 176.486 96.0361 173.42 92.7395 170.848C89.9144 168.642 86.7453 166.62 83.1812 166.242C79.6172 165.865 75.8528 167.4 74.6405 170.774C70.7742 170.555 66.9228 173.184 65.7192 176.865C64.1947 181.53 66.6168 187.059 64.2351 191.349C62.9781 193.614 60.6356 195.013 58.6925 196.725C56.7493 198.438 55.0513 200.987 55.7772 203.474C56.3314 205.374 58.1439 206.647 58.9456 208.456C59.8618 210.522 59.3226 212.93 58.5594 215.058C57.7962 217.185 56.8084 219.318 56.8607 221.577C56.9129 223.837 58.4462 226.277 60.7034 226.393C63.253 226.524 65.8293 226.755 68.4199 227.027C67.6791 223.701 67.8048 220.179 68.8802 216.944Z" fill="#6A3649"/>
<path d="M103.169 217.332C104.003 215.555 104.531 213.492 103.891 211.637C103.345 210.054 102.045 208.875 100.99 207.574C99.9355 206.274 99.5536 204.95 99.4373 203.28C99.1916 199.749 99.943 196.244 100.579 192.754C100.072 191.449 99.2476 190.282 98.0658 189.554C97.1527 188.992 95.8664 188.842 94.7934 188.842L70.8831 198.127C69.5147 198.656 68.6228 200.459 68.55 201.924C68.4779 203.389 68.9767 204.817 69.4979 206.188C70.0192 207.559 70.5777 208.953 70.6312 210.418C70.7146 212.684 69.5956 214.793 68.8797 216.944C67.8042 220.179 67.6786 223.701 68.4194 227.027C79.2497 228.16 90.3374 230.002 100.867 228.245C99.7414 226.636 99.8671 224.437 100.533 222.591C101.2 220.745 102.335 219.109 103.169 217.332Z" fill="#472948"/>
<path d="M96.7333 220.22C100.539 221.082 103.646 223.818 104.981 227.485L115.511 256.404L108.55 263.791L95.3506 236.487L96.7333 220.22Z" fill="#F0BF9C"/>
<path d="M96.4837 227.468L96.1273 227.351L95.3511 236.487L97.1356 240.178L103.621 236.121C103.063 235.119 102.574 234.052 102.169 232.954C101.211 230.354 99.1173 228.334 96.4837 227.468Z" fill="#56438C"/>
<path d="M105.276 226.427C103.733 223.372 100.906 221.165 97.5679 220.409L96.7338 220.22L96.1279 227.351L96.4843 227.468C99.1179 228.334 101.212 230.354 102.17 232.955C102.575 234.053 103.064 235.12 103.622 236.122L108.599 233.008L105.276 226.427Z" fill="#6C6FC3"/>
<path d="M107.29 233.826L108.013 235.811L99.4135 244.891L97.1357 240.179L107.29 233.826Z" fill="#422C4F"/>
<path d="M112.791 248.934L105.768 258.035L108.55 263.791L115.511 256.405L112.791 248.934Z" fill="#EBA588"/>
<path d="M81.8512 213.466C82.9658 213.664 84.1377 213.6 85.2125 213.256V207.318L75.4782 205.072L75.3252 208.858C75.8601 209.621 76.456 210.337 77.1346 210.976C78.4476 212.211 80.076 213.151 81.8512 213.466Z" fill="#422C4F"/>
<path d="M79.9325 222.875C83.435 222.905 86.8441 220.926 88.6902 217.969L85.2133 216.995V213.257C84.1384 213.6 82.966 213.665 81.852 213.467C80.0768 213.151 78.4484 212.212 77.1353 210.976C76.4574 210.338 75.8609 209.621 75.3259 208.858L75.0181 216.477L71.2183 217.743C73.0009 220.772 76.402 222.844 79.9325 222.875Z" fill="#F0BF9C"/>
<path d="M63.4764 230.51L59.6387 224.883V241.994L63.0435 250.695C63.1704 251.019 63.2805 251.35 63.3974 251.678L65.3076 239.644C65.812 236.478 65.162 233.236 63.4764 230.51Z" fill="#56438C"/>
<path d="M62.5321 277.109L57.7949 287.958H107.1L102.878 277.02C101.26 272.828 100.43 268.373 100.43 263.88V256.505C100.43 254.616 101.034 252.792 102.083 251.22C102.162 251.102 102.24 250.983 102.317 250.862C103.927 248.365 104.226 245.232 103.092 242.485C100.157 235.374 97.8499 227.698 96.7315 220.22L88.6884 217.968C86.8423 220.925 83.4331 222.904 79.9307 222.874C76.4002 222.843 72.9991 220.771 71.2164 217.742L59.6373 221.602V224.881L63.475 230.508C65.1613 233.235 65.8106 236.476 65.3062 239.642L63.396 251.676C64.9865 256.134 65.6576 260.871 65.3398 265.6C65.0742 269.571 64.1238 273.464 62.5321 277.109Z" fill="#6C6FC3"/>
<path d="M94.7926 188.842C94.8306 192.03 94.8673 195.24 94.3149 198.379C93.7626 201.519 92.5802 204.619 90.4492 206.99C88.3182 209.362 85.1479 210.915 81.9732 210.624C79.0175 210.352 76.3597 208.53 74.5465 206.18C72.7334 203.83 71.6723 200.988 70.8823 198.126C76.6414 194.374 80.5184 187.464 80.6092 180.592C82.8142 180.647 85.1255 181.635 86.8491 183.012C88.0769 183.993 89.0596 185.243 90.1942 186.332C91.3281 187.42 93.2302 188.668 94.7926 188.842Z" fill="#F0BF9C"/>
<path d="M81.7344 187.758C83.2539 187.642 84.6553 188.267 85.5951 189.324L78.1548 189.89C78.9242 188.703 80.2148 187.873 81.7344 187.758Z" fill="#422C4F"/>
<path d="M93.2188 187.809C92.2988 187.739 91.4871 188.405 90.9746 189.489L95.4785 189.831C94.956 188.668 94.1381 187.878 93.2188 187.809Z" fill="#422C4F"/>
<path d="M89.7588 194.636C89.9827 193.882 90.9798 193.104 92.1149 193.163C93.2513 193.194 94.1837 194.047 94.3479 194.817C93.7104 194.365 92.9024 194.018 92.0826 193.987C91.2622 193.954 90.4299 194.236 89.7588 194.636Z" fill="#422C4F"/>
<path d="M79.4756 194.199C79.6435 193.754 80.0086 193.29 80.528 192.963C81.0436 192.632 81.7111 192.439 82.3853 192.474C83.0596 192.507 83.7039 192.765 84.1841 193.146C84.668 193.524 84.9853 194.022 85.1078 194.481C84.3222 193.944 83.3382 193.525 82.3349 193.476C81.3316 193.424 80.3109 193.743 79.4756 194.199Z" fill="#422C4F"/>
<path d="M85.6836 198.587C86.8598 198.617 88.0329 198.772 89.1767 199.046C88.8906 199.733 88.0447 200.164 87.3027 200.113C86.5606 200.062 85.8727 199.306 85.6836 198.587Z" fill="#EBA588"/>
<path d="M88.6898 203.718C87.9938 204.036 87.2051 204.274 86.3691 204.277C85.5332 204.293 84.6636 204.129 83.9116 204.046C84.4154 204.598 85.3453 205.09 86.3828 205.072C86.8941 205.064 87.4135 204.92 87.8234 204.664C88.2358 204.41 88.5281 204.057 88.6898 203.718Z" fill="#422C4F"/>
<path d="M82.0806 207.417C82.6422 207.374 83.2897 207.111 83.8327 206.626C84.377 206.147 84.8118 205.447 84.9865 204.666C85.162 203.884 85.0674 203.066 84.78 202.4C84.4964 201.73 84.0231 201.215 83.5336 200.937C83.9124 201.997 84.089 203.25 83.8284 204.406C83.5703 205.562 82.8755 206.62 82.0806 207.417Z" fill="#EBA588"/>
<path d="M114.94 198.408L113.942 198.634L118.286 217.848L119.284 217.623L114.94 198.408Z" fill="#984058"/>
<path d="M109.841 188.876C110.138 190.239 109.689 191.682 108.903 192.834C108.118 193.986 107.022 194.887 105.905 195.722C100.485 199.771 94.1818 202.708 87.5649 204.12C94.7658 203.405 102.24 200.672 108.278 196.684L112.948 194.817L111.594 189.231L109.841 188.876Z" fill="#FDF7E7"/>
<path d="M120.896 200.777L117.028 183.669C116.334 180.597 113.281 178.67 110.209 179.365C107.137 180.06 105.21 183.112 105.904 186.184L106.617 189.336C106.826 189.294 107.037 189.261 107.25 189.247C107.961 189.199 108.697 189.334 109.299 189.714C110.311 190.354 110.805 191.621 110.758 192.818C110.719 193.797 110.356 194.759 109.738 195.519C109.342 196.007 108.837 196.396 108.279 196.685L109.773 203.292C110.467 206.364 113.52 208.291 116.592 207.596C119.664 206.901 121.59 203.848 120.896 200.777Z" fill="#F0BF6C"/>
<path d="M85.7009 243.84L84.3472 244.118L86.9247 256.66L88.2785 256.382L85.7009 243.84Z" fill="white"/>
<path d="M96.5709 257.257H78.6386L78.0732 258.813H97.1369L96.5709 257.257Z" fill="#402C49"/>
<path d="M94.9871 255.702H80.2227L79.7568 257.257H95.453L94.9871 255.702Z" fill="#402C49"/>
<path d="M85.213 268.477C85.9587 268.773 86.6268 269.232 87.3377 269.604C89.7206 270.848 92.6123 270.979 95.15 270.114L96.0432 258.812H79.1665L79.9913 269.248C81.4536 268.14 83.4987 267.797 85.213 268.477Z" fill="#E4737B"/>
<path d="M87.3377 269.604C86.6267 269.233 85.9587 268.773 85.2129 268.478C83.4987 267.798 81.4535 268.14 79.9912 269.249L80.4148 274.608C81.8323 273.739 83.661 273.525 85.2129 274.141C85.9587 274.436 86.6267 274.896 87.3377 275.267C89.5781 276.437 92.2682 276.622 94.6909 275.922L95.15 270.114C92.6122 270.979 89.7205 270.848 87.3377 269.604Z" fill="white"/>
<path d="M87.3374 275.267C86.6265 274.896 85.9584 274.436 85.2127 274.14C83.6608 273.525 81.8327 273.74 80.4146 274.608L81.4701 287.959H93.739L94.6907 275.922C92.2674 276.622 89.5779 276.437 87.3374 275.267Z" fill="#E4737B"/>
<path d="M87.0993 270.168C87.9303 270.222 88.6245 269.507 88.5131 268.65C88.4534 268.191 88.1319 267.805 87.7164 267.6L82.6651 265.103C81.6562 264.604 80.4495 264.741 79.5769 265.452L76.3431 268.086L57.3354 259.187L63.0385 233.145C63.9528 228.97 62.6709 224.617 59.6393 221.603C57.1606 222.634 55.3257 224.79 54.7037 227.402L47.6397 257.07C46.5686 261.57 49.0535 266.156 53.4087 267.714L76.1702 275.862L77.7538 277.531C78.6756 278.502 79.8561 279.19 81.1555 279.513L85.3546 280.557C85.8485 280.679 86.3405 280.348 86.4108 279.843C86.4636 279.464 86.259 279.095 85.9082 278.94L82.7279 277.534C82.0618 277.24 81.4746 276.792 81.0137 276.229L80.7823 275.946L85.354 277.33C86.0643 277.546 86.7989 277.076 86.9015 276.341C86.9731 275.831 86.7143 275.333 86.2565 275.098L82.155 272.991L85.8292 273.984C86.5464 274.178 87.2716 273.699 87.3743 272.963C87.4433 272.47 87.2082 271.982 86.7784 271.729L83.1335 269.579C82.5998 269.264 81.9765 269.138 81.3626 269.221L80.5739 269.327L82.1289 268.445L87.0993 270.168Z" fill="#F0BF9C"/>
<path d="M59.6394 221.603L58.9863 221.875C56.8827 222.75 55.2257 224.444 54.3972 226.567L50.769 235.859L62.9515 240.179L63.8267 232.451C64.2565 228.655 62.9273 224.87 60.2178 222.177L59.6394 221.603Z" fill="#6C6FC3"/>
<path d="M57.3355 259.187L51.2007 256.941L57.9444 256.405L57.3355 259.187Z" fill="#EBA588"/>
<path d="M52.5403 236.487L61.6022 239.701L61.2328 241.391L51.5146 240.797L52.5403 236.487Z" fill="#422C4F"/>
<path d="M82.1548 272.991L78.2935 272.592C79.3938 271.994 80.7348 272.052 81.7791 272.743L82.1548 272.991Z" fill="#EBA588"/>
<path d="M113.945 213.824L117.86 210.88C118.595 210.327 119.612 210.348 120.323 210.93L123.951 213.898C124.504 214.351 124.861 215.001 124.947 215.711L126.348 227.392C126.533 228.934 126.441 230.498 126.077 232.008L118.661 262.73C118.028 265.353 115.554 267.105 112.87 266.833C109.267 266.467 107.039 262.728 108.433 259.385L121.272 228.601L119.544 226.527C117.94 226.527 116.512 225.513 115.983 223.999L113.241 216.144C112.945 215.3 113.23 214.362 113.945 213.824Z" fill="#F0BF9C"/>
<path d="M118.589 213.986C117.045 214.959 115.502 215.931 113.959 216.904C114.291 216.017 114.914 215.287 115.696 214.754C116.478 214.221 117.642 213.971 118.589 213.986Z" fill="#EBA588"/>
<path d="M119.818 217.635C118.218 218.253 116.619 218.873 115.02 219.492C116.257 218.18 118.034 217.372 119.818 217.635Z" fill="#EBA588"/>
<path d="M120.739 220.913C119.091 221.283 117.442 221.653 115.794 222.023C117.128 220.908 119.054 220.488 120.739 220.913Z" fill="#EBA588"/>
<path d="M124.054 238.702L120.932 224.895C120.87 224.619 120.596 224.446 120.32 224.508C120.045 224.57 119.872 224.845 119.934 225.12L123.056 238.927C123.118 239.203 123.392 239.376 123.668 239.314C123.943 239.252 124.116 238.977 124.054 238.702Z" fill="#984058"/>
<path d="M259.194 289.504H193.704C185.576 284.684 179.518 276.494 177.29 267.312C175.061 258.129 176.69 248.073 181.704 240.064C183.787 236.737 186.411 233.769 188.426 230.4C190.44 227.03 191.84 223.06 191.117 219.203C190.341 215.064 187.288 211.743 185.752 207.823C183.265 201.478 185.111 193.962 189.372 188.644C193.632 183.325 199.985 180.003 206.56 178.212C213.135 176.42 219.998 176.028 226.803 175.645C233.107 175.291 240.216 175.297 245.547 178.681C250.877 182.065 254.456 188.066 254.898 194.365C255.256 199.47 253.702 204.787 255.381 209.621C257.338 215.254 263.019 218.518 267.954 221.863C272.89 225.208 277.918 230.122 277.322 236.056C276.726 241.986 270.795 245.926 268.702 251.506C267.135 255.683 267.874 260.345 268.904 264.685C269.934 269.025 271.247 273.43 270.763 277.865C270.277 282.299 263.655 289.504 259.194 289.504Z" fill="#D3FBF0"/>
<path d="M233.307 214.155C231.871 216.093 229.803 217.203 227.629 217.203C225.457 217.203 223.389 216.092 221.952 214.155C221.679 213.788 221.427 213.402 221.178 213.015V218.262L218.535 218.932C219.595 221.961 222.207 225.75 227.629 225.75C233.052 225.75 235.664 221.961 236.724 218.932L234.081 218.262V213.015C233.831 213.402 233.58 213.787 233.307 214.155Z" fill="#F0BF9C"/>
<path d="M221.952 214.155C223.389 216.093 225.457 217.203 227.63 217.203C229.803 217.203 231.871 216.092 233.308 214.155C233.581 213.788 233.832 213.402 234.082 213.015V209.21L227.631 211.235L221.179 209.21V213.015C221.428 213.402 221.68 213.788 221.952 214.155Z" fill="#422C4F"/>
<path d="M248.596 221.94L236.724 218.931C235.664 221.961 233.052 225.75 227.63 225.75C222.207 225.75 219.595 221.961 218.535 218.931L206.663 221.94L204.82 287.036H227.63H250.44L248.596 221.94Z" fill="#62B292"/>
<path d="M214.669 206.06C217.138 206.06 219.14 204.058 219.14 201.589C219.14 199.12 217.138 197.118 214.669 197.118C212.2 197.118 210.198 199.12 210.198 201.589C210.198 204.058 212.2 206.06 214.669 206.06Z" fill="#F0BF9C"/>
<path d="M214.669 204.083C216.047 204.083 217.163 202.967 217.163 201.589C217.163 200.212 216.047 199.095 214.669 199.095C213.292 199.095 212.175 200.212 212.175 201.589C212.175 202.967 213.292 204.083 214.669 204.083Z" fill="#EBA588"/>
<path d="M240.588 206.06C243.057 206.06 245.059 204.058 245.059 201.589C245.059 199.12 243.057 197.118 240.588 197.118C238.118 197.118 236.117 199.12 236.117 201.589C236.117 204.058 238.118 206.06 240.588 206.06Z" fill="#F0BF9C"/>
<path d="M240.587 204.083C241.965 204.083 243.082 202.966 243.082 201.589C243.082 200.211 241.965 199.095 240.587 199.095C239.21 199.095 238.093 200.211 238.093 201.589C238.093 202.966 239.21 204.083 240.587 204.083Z" fill="#EBA588"/>
<path d="M216.141 203.23C213.729 199.477 211.581 195.681 210.786 191.291C209.993 186.9 210.615 182.114 213.223 178.494C216.133 174.456 221.084 172.368 225.974 171.446C228.649 170.941 231.47 170.737 234.045 171.621C236.619 172.504 238.891 174.68 239.219 177.381C240.448 176.389 242.811 177.019 243.895 178.168C244.98 179.315 245.381 180.942 245.594 182.506C246.665 190.347 243.833 198.625 238.184 204.168L216.141 203.23Z" fill="#CC6164"/>
<path d="M232.778 185.144C230.495 185.437 228.393 186.5 226.339 187.54C224.285 188.58 222.173 189.629 219.886 189.891C218.133 190.092 216.24 189.733 214.834 188.722C214.712 189.467 214.649 190.23 214.674 191.011L214.857 196.701C215.02 201.739 217.026 206.565 220.532 210.348C222.327 212.285 224.912 213.395 227.628 213.395C230.344 213.395 232.929 212.286 234.725 210.348C238.23 206.566 240.237 201.739 240.399 196.701L240.582 191.011C240.626 189.637 240.424 188.314 240.028 187.069C237.965 185.552 235.323 184.818 232.778 185.144Z" fill="#F0BF9C"/>
<path d="M220.428 192.262C218.894 192.193 217.501 192.865 216.586 193.958L224.1 194.301C223.289 193.129 221.963 192.332 220.428 192.262Z" fill="#CC6164"/>
<path d="M223.112 198.039C222.745 197.264 221.775 196.509 220.653 196.285C219.535 196.038 218.343 196.339 217.696 196.9C218.554 196.912 219.521 196.964 220.468 197.166C221.416 197.362 222.322 197.704 223.112 198.039Z" fill="#422C4F"/>
<path d="M234.31 192.262C235.845 192.193 237.238 192.865 238.153 193.958L230.638 194.301C231.45 193.129 232.776 192.332 234.31 192.262Z" fill="#CC6164"/>
<path d="M231.626 198.039C231.993 197.264 232.963 196.509 234.086 196.285C235.204 196.038 236.395 196.339 237.043 196.9C236.186 196.912 235.219 196.964 234.271 197.166C233.323 197.362 232.416 197.704 231.626 198.039Z" fill="#422C4F"/>
<path d="M229.328 203.084C227.945 203.069 226.563 203.054 225.18 203.039C225.448 203.851 226.334 204.437 227.187 204.484C228.041 204.531 228.973 203.861 229.328 203.084Z" fill="#EBA588"/>
<path d="M231.879 206.018C229.046 206.4 226.212 206.783 223.379 207.165C224.199 207.962 225.153 208.736 226.258 209.031C227.362 209.325 228.574 209.268 229.608 208.778C230.64 208.288 231.617 207.131 231.879 206.018Z" fill="white"/>
<path d="M224.116 250.384C223.309 249.3 223.303 247.711 224.099 245.523L224.135 245.422C224.648 244.014 225.229 242.419 224.689 241.151C224.504 240.716 224.198 240.349 223.873 239.961C223.418 239.416 222.948 238.853 222.812 238.076C222.644 237.116 223.047 236.196 223.436 235.306C223.621 234.882 223.813 234.444 223.933 234.017C224.321 232.641 224.013 231.241 223.661 230.053C223.592 229.821 223.52 229.589 223.447 229.357C223.115 228.29 222.771 227.187 222.753 225.982C222.731 224.675 223.218 222.793 224.655 221.791L225.051 222.357C223.913 223.15 223.424 224.743 223.444 225.97C223.46 227.076 223.775 228.085 224.107 229.152C224.18 229.386 224.253 229.621 224.323 229.857C224.681 231.064 225.037 232.651 224.599 234.205C224.465 234.678 224.264 235.138 224.069 235.583C223.705 236.416 223.362 237.202 223.493 237.958C223.597 238.552 223.989 239.021 224.403 239.518C224.746 239.928 225.1 240.352 225.325 240.88C225.972 242.399 225.341 244.13 224.785 245.659L224.748 245.759C224.038 247.711 224.013 249.088 224.671 249.971L224.116 250.384Z" fill="#F0BF6C"/>
<path d="M225.461 250.385C224.638 249.292 224.632 247.686 225.443 245.478L225.481 245.378C226.004 243.954 226.596 242.342 226.045 241.061C225.856 240.622 225.544 240.252 225.212 239.859C224.75 239.31 224.27 238.741 224.132 237.958C223.96 236.989 224.371 236.06 224.767 235.162C224.956 234.733 225.151 234.29 225.275 233.858C225.67 232.469 225.356 231.054 224.997 229.854C224.926 229.619 224.853 229.385 224.78 229.151C224.441 228.074 224.09 226.961 224.07 225.745C224.049 224.425 224.545 222.526 226.009 221.511L226.404 222.079C225.242 222.884 224.742 224.495 224.762 225.734C224.78 226.85 225.1 227.866 225.439 228.943C225.513 229.181 225.588 229.418 225.66 229.656C226.025 230.876 226.387 232.477 225.939 234.047C225.803 234.525 225.598 234.99 225.4 235.44C225.028 236.281 224.678 237.076 224.813 237.838C224.918 238.438 225.318 238.912 225.741 239.413C226.09 239.827 226.451 240.255 226.68 240.788C227.34 242.322 226.697 244.073 226.129 245.616L226.093 245.716C225.369 247.688 225.342 249.078 226.014 249.97L225.461 250.385Z" fill="#F0BF6C"/>
<path d="M226.833 250.387C225.994 249.284 225.988 247.663 226.815 245.431L226.852 245.331C227.386 243.893 227.992 242.264 227.429 240.969C227.237 240.526 226.917 240.152 226.579 239.755C226.107 239.2 225.619 238.628 225.478 237.837C225.304 236.858 225.722 235.919 226.127 235.011C226.319 234.578 226.518 234.131 226.643 233.696C227.047 232.294 226.727 230.865 226.36 229.652C226.289 229.416 226.214 229.18 226.139 228.945C225.793 227.858 225.435 226.733 225.416 225.504C225.395 224.172 225.9 222.253 227.392 221.227L227.784 221.796C226.598 222.612 226.087 224.241 226.107 225.493C226.125 226.621 226.452 227.648 226.798 228.735C226.873 228.974 226.95 229.213 227.022 229.453C227.394 230.686 227.763 232.304 227.307 233.889C227.168 234.37 226.959 234.84 226.757 235.294C226.379 236.143 226.021 236.947 226.158 237.716C226.266 238.323 226.673 238.801 227.105 239.307C227.461 239.725 227.829 240.157 228.064 240.695C228.737 242.244 228.08 244.012 227.501 245.573L227.463 245.672C226.726 247.664 226.699 249.07 227.384 249.969L226.833 250.387Z" fill="#F0BF6C"/>
<path d="M228.232 250.388C227.376 249.273 227.371 247.636 228.215 245.383L228.253 245.279C228.798 243.827 229.415 242.182 228.841 240.876C228.644 240.427 228.319 240.05 227.973 239.649C227.491 239.09 226.993 238.512 226.85 237.714C226.672 236.726 227.098 235.778 227.511 234.861C227.707 234.423 227.911 233.971 228.039 233.53C228.451 232.112 228.125 230.669 227.751 229.447C227.678 229.208 227.601 228.97 227.525 228.732C227.172 227.634 226.807 226.499 226.787 225.257C226.766 223.913 227.279 221.976 228.8 220.935L229.19 221.506C227.979 222.333 227.457 223.981 227.478 225.246C227.496 226.385 227.83 227.422 228.183 228.52C228.261 228.76 228.338 229.002 228.412 229.243C228.791 230.487 229.168 232.12 228.703 233.722C228.561 234.209 228.348 234.684 228.141 235.143C227.755 236.002 227.39 236.813 227.531 237.59C227.641 238.203 228.056 238.686 228.497 239.197C228.86 239.618 229.235 240.054 229.474 240.598C230.16 242.16 229.49 243.946 228.9 245.521L228.861 245.625C228.108 247.636 228.081 249.056 228.78 249.966L228.232 250.388Z" fill="#F0BF6C"/>
<path d="M229.659 250.39C228.787 249.264 228.781 247.61 229.643 245.335L229.682 245.229C230.238 243.762 230.868 242.1 230.283 240.782C230.082 240.329 229.749 239.947 229.397 239.542C228.906 238.978 228.397 238.395 228.251 237.588C228.069 236.591 228.504 235.633 228.925 234.706C229.126 234.264 229.333 233.806 229.464 233.361C229.885 231.927 229.551 230.471 229.17 229.235C229.096 228.995 229.018 228.755 228.94 228.514C228.58 227.406 228.208 226.26 228.187 225.006C228.165 223.649 228.689 221.691 230.239 220.639L230.628 221.211C229.391 222.05 228.858 223.716 228.878 224.995C228.896 226.145 229.237 227.192 229.597 228.301C229.676 228.544 229.755 228.787 229.83 229.031C230.218 230.287 230.602 231.937 230.127 233.555C229.984 234.047 229.765 234.527 229.554 234.991C229.161 235.86 228.788 236.679 228.931 237.464C229.043 238.083 229.469 238.572 229.918 239.088C230.288 239.513 230.671 239.952 230.915 240.5C231.614 242.078 230.932 243.882 230.329 245.473L230.29 245.578C229.521 247.611 229.493 249.046 230.207 249.965L229.659 250.39Z" fill="#F0BF6C"/>
<path d="M231.116 250.391C230.226 249.255 230.22 247.584 231.099 245.284L231.138 245.182C231.707 243.698 232.35 242.016 231.753 240.683C231.547 240.226 231.207 239.84 230.848 239.431C230.347 238.862 229.828 238.274 229.679 237.46C229.494 236.452 229.939 235.483 230.368 234.547C230.573 234.099 230.785 233.637 230.918 233.188C231.347 231.739 231.007 230.267 230.618 229.019C230.542 228.776 230.462 228.535 230.383 228.293C230.016 227.174 229.636 226.015 229.614 224.748C229.592 223.377 230.127 221.399 231.707 220.334L232.094 220.907C230.829 221.76 230.285 223.444 230.305 224.737C230.324 225.899 230.672 226.956 231.04 228.077C231.12 228.322 231.201 228.567 231.278 228.812C231.673 230.081 232.064 231.748 231.581 233.383C231.433 233.88 231.21 234.365 230.996 234.834C230.593 235.712 230.213 236.54 230.358 237.333C230.473 237.959 230.907 238.452 231.366 238.973C231.744 239.402 232.134 239.846 232.382 240.398C233.098 241.994 232.399 243.818 231.783 245.427L231.744 245.53C230.959 247.584 230.931 249.034 231.659 249.963L231.116 250.391Z" fill="#F0BF6C"/>
<path d="M232.603 250.392C231.694 249.244 231.689 247.557 232.586 245.234L232.627 245.127C233.206 243.628 233.863 241.93 233.253 240.584C233.043 240.121 232.696 239.731 232.329 239.318C231.817 238.744 231.289 238.15 231.136 237.329C230.947 236.31 231.4 235.332 231.839 234.385C232.048 233.934 232.265 233.466 232.4 233.011C232.838 231.547 232.492 230.061 232.094 228.8C232.017 228.554 231.935 228.308 231.854 228.063C231.479 226.934 231.092 225.766 231.07 224.486C231.048 223.102 231.594 221.103 233.205 220.025L233.59 220.6C232.298 221.464 231.74 223.169 231.762 224.475C231.78 225.648 232.135 226.716 232.51 227.846C232.592 228.094 232.675 228.343 232.753 228.591C233.157 229.873 233.557 231.555 233.063 233.209C232.912 233.711 232.685 234.201 232.466 234.675C232.054 235.562 231.667 236.4 231.815 237.201C231.933 237.834 232.376 238.331 232.845 238.858C233.231 239.291 233.629 239.738 233.882 240.297C234.612 241.907 233.9 243.75 233.272 245.375L233.231 245.482C232.429 247.557 232.4 249.022 233.144 249.962L232.603 250.392Z" fill="#F0BF6C"/>
<path opacity="0.15" d="M219.727 248.857H213.639L210.004 257.216H214.467L216.8 270.436H220.256C220.632 272.069 222.106 273.195 223.726 273.619C225.347 274.043 227.056 273.867 228.722 273.687C230.387 273.507 232.095 273.327 233.718 273.744L250.326 283.001L248.08 252.188L243.24 250.057L219.727 248.857Z" fill="#422C4F"/>
<path d="M247.896 261.61L247.788 267.74L256.105 271.955C254.643 267.714 251.709 263.976 247.896 261.61Z" fill="#EBA588"/>
<path d="M257.391 233.385C257.501 227.981 253.845 223.224 248.595 221.94L247.896 261.61C251.709 263.976 254.643 267.714 256.105 271.955L256.599 272.206L257.391 233.385Z" fill="#F0BF9C"/>
<path d="M248.595 221.94L249.385 222.133C254.266 223.327 257.814 227.54 258.158 232.553L259.193 247.634H248.142L248.595 221.94Z" fill="#62B292"/>
<path d="M257.101 247.633H248.142L248.078 251.266L257.101 249.132V247.633Z" fill="#422C4F"/>
<path d="M248.143 247.633L248.451 234.217L248.573 234.448C250.082 237.303 250.871 240.485 250.871 243.715V247.634H248.143V247.633Z" fill="#52969E"/>
<path d="M241.683 262.729L252.46 266.365C256.483 267.722 257.892 272.692 255.181 275.959C253.134 278.426 249.516 278.866 246.936 276.963L232.64 266.416L241.683 262.729Z" fill="#F0BF9C"/>
<path d="M224.987 246.076L222.568 252.188H214.467L217.549 246.076H224.987Z" fill="#9062A0"/>
<path d="M243.393 264.342H228.761L225.651 246.076H246.503L243.393 264.342Z" fill="#9062A0"/>
<path d="M235.291 264.342H220.659L217.549 246.076H238.401L235.291 264.342Z" fill="#E4737B"/>
<path d="M238.401 246.076L240.82 252.188H248.921L246.502 246.076H238.401Z" fill="#E4737B"/>
<path d="M243.903 261.342L245.157 259.955C245.913 259.119 245.888 257.839 245.101 257.032L244.706 256.628L243.903 261.342Z" fill="#F0BF9C"/>
<path d="M223.293 260.838L222.588 263.565C222.46 264.06 222.548 264.585 222.829 265.011C223.956 266.716 225.862 267.741 227.905 267.741H232.398C235.405 267.741 238.302 266.609 240.513 264.571L240.761 264.342H235.29L234.959 261.294C234.693 258.849 232.54 257.052 230.086 257.229L227.388 257.424C225.432 257.565 223.785 258.939 223.293 260.838Z" fill="#F0BF9C"/>
<path d="M231.071 257.625L231.422 267.383C230.48 264.761 230.257 261.935 230.773 259.198L231.071 257.625Z" fill="#EBA588"/>
<path d="M228.186 259.335L227.528 263.042C227.308 264.283 227.565 265.561 228.248 266.619L228.74 267.382L227.787 266.364C226.958 265.479 226.669 264.218 227.028 263.06L228.186 259.335Z" fill="#EBA588"/>
<path d="M225.515 259.491L224.886 261.68C224.423 263.292 224.458 265.008 224.986 266.601L224.988 266.605L224.575 265.926C224.014 265.004 223.904 263.876 224.276 262.863L225.515 259.491Z" fill="#EBA588"/>
<path d="M206.662 221.94C201.744 222.936 197.934 226.837 197.056 231.777L190.477 268.777L201.788 270.211L206.009 245.016L206.662 221.94Z" fill="#EBA588"/>
<path d="M206.662 221.94L205.835 222.107C201.34 223.017 197.733 226.368 196.494 230.784L192.205 246.075L205.366 248.858L206.009 245.016L206.662 221.94Z" fill="#62B292"/>
<path d="M193.497 246.349L205.366 248.857L204.614 253.342L193.105 247.921L193.497 246.349Z" fill="#422C4F"/>
<path d="M205.366 248.857L206.009 245.017L206.662 234.787L201.881 240.438L202.589 248.271L205.366 248.857Z" fill="#52969E"/>
<path d="M191.859 227.91L192.463 230.157L233.849 220.22L233.547 219.313L191.859 227.91Z" fill="#6A3649"/>
<path d="M192.882 231.111L193.607 233.321L234.397 221.169L234.046 220.279L192.882 231.111Z" fill="#6A3649"/>
<path d="M196.007 236.291L202.429 226.146C203.187 224.949 204.377 224.088 205.751 223.741L212.678 221.995C213.569 221.771 214.488 222.244 214.823 223.099C215.101 223.81 214.908 224.618 214.339 225.125L211.991 227.219L213.724 233.717C213.936 234.51 213.717 235.356 213.147 235.947L211.49 237.668C210.473 238.724 208.76 238.645 207.844 237.5L202.832 240.698L201.923 269.081C201.804 272.813 198.744 275.776 195.011 275.776C190.512 275.776 187.211 271.55 188.3 267.185L196.007 236.291Z" fill="#F0BF9C"/>
<path d="M285.702 287.036H170.994V292.278H285.702V287.036Z" fill="#A64F5A"/>
<path d="M285.702 292.278H170.994V295.389H285.702V292.278Z" fill="#8C404C"/>
</g>
<defs>
<clipPath id="clip0_453_594">
<rect width="311" height="311" fill="white"/>
</clipPath>
</defs>
</svg>
